<?xml version="1.0" standalone="no"?>
<!DOCTYPE svg PUBLIC "-//W3C//DTD SVG 20010904//EN"
 "http://www.w3.org/TR/2001/REC-SVG-20010904/DTD/svg10.dtd">
<svg version="1.0" xmlns="http://www.w3.org/2000/svg"
 width="300.000000pt" height="342.000000pt" viewBox="0 0 300.000000 342.000000"
 preserveAspectRatio="xMidYMid meet">
<metadata>
Created by potrace 1.10, written by Peter Selinger 2001-2011
</metadata>
<g transform="translate(0.000000,342.000000) scale(0.100000,-0.100000)"
fill="#000000" stroke="none">
<path d="M2830 3390 c-12 -16 -26 -28 -30 -25 -10 6 -5 -27 7 -50 6 -11 15
-16 20 -12 4 5 0 13 -10 18 -16 9 -14 14 19 55 20 24 32 44 27 44 -6 0 -20
-13 -33 -30z"/>
<path d="M185 3349 c-49 -14 -102 -65 -134 -131 -17 -34 -31 -67 -31 -75 0
-19 20 -16 27 5 11 31 36 52 60 52 32 0 188 -66 231 -97 63 -47 62 -38 62
-513 0 -397 -3 -455 -25 -420 -8 13 -129 80 -143 80 -7 0 -12 -11 -12 -24 0
-17 34 -59 116 -146 108 -113 116 -123 110 -153 -3 -18 -9 -374 -12 -792 -7
-823 -5 -792 -62 -841 -52 -45 -181 -65 -256 -39 l-49 17 -23 -29 c-13 -15
-23 -36 -24 -47 0 -26 35 -81 65 -100 24 -16 25 -15 25 4 0 11 -4 20 -10 20
-14 0 -40 55 -40 85 0 21 5 25 28 25 34 0 48 -9 55 -35 4 -18 5 -18 6 3 1 21
5 22 69 22 56 0 80 5 128 30 93 46 124 103 124 228 0 61 6 72 26 52 8 -8 15
-5 25 7 13 16 12 17 -3 5 -12 -10 -18 -10 -23 -1 -4 6 -1 15 6 20 8 5 9 9 4 9
-6 0 -16 -5 -22 -11 -9 -9 -12 112 -12 480 0 333 3 491 10 491 6 0 8 9 4 19
-3 11 -1 22 5 26 6 3 10 -3 10 -16 0 -18 3 -20 12 -11 9 9 7 16 -7 32 -10 11
-22 17 -27 14 -7 -5 -5 229 3 336 1 14 -3 38 -9 53 -10 24 -9 34 5 57 13 23
14 32 4 44 -10 12 -16 13 -32 3 -20 -13 -25 -42 -9 -52 6 -3 10 -14 10 -23 -1
-13 -5 -12 -21 8 -11 14 -32 37 -45 52 -13 15 -24 35 -24 44 0 10 -6 14 -17
10 -13 -4 -27 7 -47 36 -17 23 -26 39 -20 36 5 -2 26 -13 47 -22 21 -10 36
-20 33 -23 -3 -4 -1 -12 6 -20 9 -11 16 -9 40 13 25 25 28 34 28 95 0 45 4 69
13 72 9 4 8 8 -3 17 -11 9 -12 13 -3 17 9 3 10 10 4 21 -10 19 -8 103 3 120 4
7 4 12 -1 12 -10 0 -10 321 0 337 4 6 1 14 -5 17 -10 5 -10 7 -1 12 7 3 10 11
8 17 -2 7 -6 41 -9 77 -3 36 -16 92 -30 125 -21 53 -28 61 -58 66 -18 4 -79
27 -135 51 -100 44 -102 45 -87 66 8 12 31 29 51 37 33 14 38 14 54 -1 19 -17
49 -13 49 6 0 5 9 10 20 10 11 0 20 -5 20 -11 0 -5 -6 -7 -12 -4 -7 4 0 -5 17
-19 32 -27 45 -21 45 22 0 15 4 21 12 16 6 -4 35 -6 63 -5 28 1 63 -3 79 -9
18 -7 33 -7 40 -1 6 6 21 8 31 6 11 -2 27 -4 36 -4 9 -1 28 -18 42 -39 25 -39
25 -40 26 -267 l0 -228 -30 -30 -30 -30 30 -21 c17 -11 31 -30 32 -41 5 -71 4
-113 -3 -109 -4 3 -8 -2 -8 -10 0 -9 -8 -16 -17 -16 -15 0 -15 -2 -4 -9 8 -5
20 -7 28 -4 8 3 13 -2 13 -12 0 -12 -5 -15 -22 -9 -22 6 -22 6 -5 -13 11 -13
17 -36 17 -72 0 -35 4 -50 11 -45 8 4 8 1 2 -12 -6 -11 -11 -41 -12 -68 -1
-27 -7 -59 -13 -70 -10 -19 -9 -19 4 -8 12 10 18 10 23 1 4 -6 2 -15 -5 -19
-10 -6 -9 -9 1 -12 11 -4 10 -11 -5 -33 -14 -21 -18 -45 -17 -89 1 -43 -2 -57
-9 -46 -6 9 -10 10 -10 3 0 -6 4 -14 9 -17 5 -4 9 -85 8 -184 -2 -158 -4 -177
-19 -177 -9 0 -20 -4 -24 -8 -4 -4 0 -7 9 -7 10 0 17 -6 17 -14 0 -9 -8 -13
-22 -9 l-23 4 23 -13 c12 -8 19 -17 15 -22 -4 -4 0 -4 10 0 9 3 17 1 17 -4 0
-6 -7 -12 -16 -14 -13 -2 -12 -7 6 -25 11 -13 17 -23 13 -23 -4 0 -7 -107 -6
-237 3 -220 2 -240 -16 -264 -19 -25 -19 -26 0 -50 17 -22 19 -43 18 -266 -1
-137 -5 -243 -10 -243 -5 0 -11 0 -14 0 -3 1 -17 -8 -32 -20 -14 -11 -34 -20
-43 -20 -10 0 -20 -7 -24 -15 -4 -13 -2 -13 14 -5 25 13 33 13 28 -2 -3 -7
-15 -15 -29 -19 -23 -7 -23 -7 4 -8 15 -1 30 5 33 13 3 9 19 14 40 13 32 -1
34 -3 34 -35 0 -49 -46 -117 -97 -144 -41 -22 -43 -22 -56 -4 -8 10 -20 16
-28 13 -10 -4 -9 -6 4 -6 19 -1 24 -21 5 -21 -10 0 -10 -2 0 -8 7 -5 10 -16 6
-25 -5 -13 -19 -17 -66 -17 -41 0 -57 -3 -52 -11 4 -7 25 -9 58 -6 28 3 78 0
111 -7 l60 -13 -85 -6 c-47 -4 -145 -7 -219 -7 -156 0 -191 12 -191 65 0 23
-3 27 -10 15 -16 -25 -11 -66 11 -86 20 -18 42 -19 463 -19 431 0 442 0 488
22 29 13 59 38 78 65 61 82 108 197 57 136 -58 -68 -199 -122 -363 -138 -204
-19 -406 -9 -291 15 46 10 71 28 118 87 l41 52 -3 906 -4 906 23 31 c26 37 27
46 7 63 -13 11 -15 88 -15 587 l0 574 -226 -1 c-124 -1 -228 1 -232 4 -8 8
-62 6 -97 -5z m975 -3175 c-8 -8 -33 -27 -57 -41 -24 -13 -40 -29 -37 -35 4
-6 -1 -8 -14 -4 -11 4 -23 2 -27 -4 -4 -6 -50 -10 -118 -9 l-112 1 104 14 c84
12 120 22 180 53 87 43 98 47 81 25z"/>
<path d="M2020 3350 c-126 -16 -181 -58 -210 -161 -11 -36 -4 -37 23 -3 11 15
41 40 66 56 41 27 43 30 16 23 -30 -6 -30 -6 -10 14 11 10 44 26 73 35 50 14
52 14 52 -5 0 -14 -7 -19 -27 -19 -16 0 -35 -5 -43 -11 -12 -8 -10 -9 9 -4 13
4 51 7 85 7 38 0 52 3 37 7 -27 7 -41 30 -19 32 20 2 337 -3 383 -6 22 -1 54
-5 70 -10 69 -18 218 -110 229 -143 5 -14 3 -14 -9 2 -8 11 -15 15 -15 9 0
-16 28 -36 40 -28 8 5 8 11 -1 21 -9 11 -8 14 5 14 9 0 16 -4 16 -10 0 -5 12
-13 26 -16 14 -4 46 -22 71 -41 72 -55 60 -31 -14 29 -138 111 -185 139 -127
76 16 -18 6 -12 -22 14 -78 70 -156 106 -261 118 -98 11 -358 11 -443 0z"/>
<path d="M878 3339 c9 -10 12 -74 12 -251 0 -131 4 -238 8 -238 5 0 19 19 32
42 l23 41 21 -29 c11 -16 37 -47 57 -69 19 -22 91 -107 159 -190 69 -82 170
-202 225 -265 120 -136 426 -505 479 -575 90 -123 160 -205 173 -205 10 0 13
22 13 96 0 80 -3 99 -17 110 -28 21 -56 18 -48 -6 7 -23 -10 -28 -18 -6 -3 8
-16 20 -29 26 l-23 11 21 -18 c11 -10 19 -24 16 -31 -2 -8 8 -12 32 -12 36 0
36 0 36 -45 0 -47 -11 -56 -36 -30 -9 8 -13 15 -10 15 3 0 -11 16 -31 36 -28
28 -33 38 -22 45 11 7 10 9 -3 9 -10 0 -18 7 -18 15 0 9 -6 18 -14 21 -8 3
-36 33 -62 67 -26 34 -58 72 -71 84 -13 12 -23 24 -23 27 0 6 -16 25 -70 86
-44 49 -49 58 -42 65 4 4 2 5 -4 3 -14 -4 -85 82 -78 94 3 4 -1 8 -8 9 -7 0
-33 25 -58 55 -25 29 -64 75 -88 101 -86 95 -124 143 -113 143 6 0 11 5 11 10
0 6 -8 10 -18 10 -26 0 -34 11 -19 28 10 13 9 14 -9 8 -15 -5 -26 1 -42 24
-12 16 -22 35 -22 42 0 7 -13 21 -28 32 -15 10 -37 31 -48 47 -11 16 -39 49
-63 74 -23 25 -38 45 -34 45 4 0 0 5 -9 11 -10 5 -18 18 -18 28 0 23 -26 46
-35 31 -3 -5 1 -10 9 -10 9 0 16 -4 16 -10 0 -13 -17 -13 -25 0 -4 6 -15 8
-26 5 -11 -4 -19 -2 -19 5 0 6 4 9 9 5 5 -3 12 -1 16 5 3 6 0 13 -8 16 -12 4
-15 33 -16 156 0 98 3 156 11 165 11 14 72 9 93 -7 6 -4 29 -14 53 -21 23 -6
42 -15 42 -18 0 -4 16 -15 35 -25 19 -10 32 -23 29 -27 -3 -5 0 -9 5 -9 6 0
11 -5 11 -11 0 -5 -4 -8 -9 -5 -11 7 -23 -22 -15 -35 3 -6 19 -8 35 -5 22 3
33 -1 48 -20 10 -13 24 -24 31 -24 6 0 9 -4 5 -10 -3 -5 2 -18 12 -30 39 -44
50 -57 78 -95 28 -37 65 -82 90 -109 6 -6 24 -29 40 -51 16 -22 41 -54 55 -71
14 -17 39 -48 55 -68 17 -21 35 -43 40 -50 6 -6 23 -29 40 -51 16 -21 36 -46
45 -55 8 -8 26 -31 40 -50 30 -43 50 -67 71 -90 15 -16 41 -49 127 -159 15
-19 39 -49 55 -65 15 -17 27 -35 27 -40 0 -5 -34 -42 -75 -82 -79 -76 -90
-104 -52 -132 9 -7 17 -19 17 -26 0 -12 39 -30 47 -22 2 2 -15 26 -37 53 -45
57 -47 63 -22 57 11 -3 36 14 72 51 30 30 60 55 66 55 9 0 11 56 8 231 -4 218
-3 230 14 225 11 -4 40 7 73 27 51 31 86 51 119 68 8 4 14 12 13 18 -2 6 5 11
14 11 9 0 13 3 10 6 -9 9 -61 -13 -136 -58 -73 -44 -90 -47 -93 -15 -1 12 -2
31 -3 42 -2 25 23 55 44 55 23 0 60 27 57 42 -1 7 -5 19 -10 27 -5 8 -3 16 5
22 9 5 10 9 2 9 -6 0 -9 8 -6 18 2 11 -11 34 -36 61 -37 40 -41 49 -41 97 0
29 5 56 11 59 6 4 8 13 5 21 -3 8 0 14 7 14 8 0 6 4 -3 10 -8 5 -10 10 -4 10
12 0 6 57 -7 66 -5 3 -9 -11 -9 -30 0 -20 -4 -36 -10 -36 -5 0 -10 -9 -10 -21
0 -11 4 -18 9 -14 5 3 12 2 15 -3 2 -4 -4 -13 -14 -20 -17 -10 -22 -7 -41 28
-12 21 -29 42 -37 45 -8 3 -2 -11 14 -32 23 -31 29 -50 32 -105 4 -60 7 -69
31 -84 48 -31 74 -63 64 -76 -6 -8 -7 -22 -2 -33 15 -39 11 -48 -21 -42 -16 4
-32 2 -36 -4 -3 -6 -12 -8 -20 -5 -15 6 -16 -16 -18 -381 -1 -179 1 -177 -59
-91 -18 25 -143 185 -280 355 -136 169 -296 369 -355 443 -59 74 -123 150
-142 168 -23 22 -28 31 -15 26 18 -7 18 -6 6 9 -7 9 -17 17 -21 17 -4 0 -31
15 -59 34 -59 40 -155 74 -232 83 -45 5 -52 3 -41 -8z"/>
<path d="M2967 3258 c-32 -35 -30 -42 7 -32 21 5 26 12 26 35 0 16 -1 28 -2
28 -2 -1 -16 -15 -31 -31z"/>
<path d="M2290 3262 c0 -5 -6 -16 -13 -26 -13 -17 -16 -17 -38 -3 -53 34 -72
27 -20 -7 44 -30 56 -34 68 -24 12 10 17 9 24 -5 6 -9 19 -17 30 -17 23 0 105
-55 113 -76 7 -19 2 -18 -41 12 -33 22 -45 25 -90 20 -67 -8 -83 -14 -76 -32
3 -8 2 -14 -3 -13 -40 7 -27 -8 34 -40 77 -41 94 -57 116 -105 11 -24 11 -34
1 -50 -9 -15 -12 -52 -9 -121 3 -108 7 -133 23 -163 17 -31 4 -57 -31 -59 -23
-2 -31 2 -35 17 -8 31 -25 24 -19 -8 5 -18 -2 -44 -19 -80 -28 -57 -30 -68
-15 -77 13 -8 48 11 87 47 29 29 32 29 41 11 8 -15 6 -22 -10 -32 -16 -10 -19
-10 -13 1 3 7 -14 -9 -39 -36 -25 -27 -50 -62 -57 -78 -6 -15 -15 -28 -19 -28
-6 0 -18 -28 -72 -172 -6 -15 -19 -37 -29 -49 -18 -21 -19 -43 -19 -355 0
-183 -4 -335 -9 -338 -5 -3 -51 43 -103 102 -97 110 -128 147 -623 747 -159
193 -318 384 -354 425 -36 41 -76 88 -87 103 -12 15 -24 27 -27 27 -3 0 -6
-63 -6 -140 -1 -77 -4 -146 -7 -154 -3 -7 -25 -28 -50 -46 -24 -19 -44 -37
-44 -40 0 -4 25 -31 55 -62 l55 -55 0 -129 0 -129 126 -145 c69 -80 149 -174
177 -210 28 -36 85 -105 127 -155 113 -136 193 -233 215 -264 11 -16 102 -130
202 -254 100 -124 179 -227 176 -230 -3 -3 23 -40 57 -82 62 -76 80 -114 80
-171 0 -26 26 -65 136 -203 75 -94 140 -171 145 -171 5 0 9 -4 9 -8 0 -10 -59
-8 -140 3 -62 8 -142 44 -181 82 -23 21 -30 23 -48 14 -27 -15 -26 -28 4 -74
34 -49 94 -86 158 -97 74 -12 471 -20 549 -10 36 4 87 18 114 30 42 19 46 23
29 30 -18 7 -18 8 6 15 32 8 74 50 88 86 9 25 6 29 -40 58 -57 35 -67 38 -48
14 13 -17 13 -17 -11 -2 -14 9 -25 23 -25 30 0 8 -9 14 -20 14 -30 0 -79 91
-108 203 -36 136 -36 134 -42 457 -3 160 -8 305 -11 323 -5 35 -18 39 -48 17
-11 -8 -25 -15 -32 -15 -18 0 -28 51 -12 66 11 11 12 117 6 566 -6 503 -5 555
10 584 44 82 80 140 106 171 16 18 26 37 22 40 -8 8 -44 -29 -79 -83 -39 -59
-67 -90 -67 -76 0 7 -4 11 -9 8 -13 -8 -8 14 12 52 10 17 22 32 27 32 6 0 10
7 10 15 0 19 68 95 86 95 7 0 18 -9 24 -20 6 -11 16 -17 25 -14 8 4 13 9 10
14 -12 20 25 60 86 93 63 35 87 58 102 100 3 9 2 17 -3 17 -6 0 -10 -6 -10
-13 0 -7 -12 -25 -27 -38 -30 -27 -186 -119 -202 -119 -18 0 -141 -131 -162
-172 -21 -41 -21 -42 -2 -57 19 -16 21 -26 13 -106 -2 -28 -3 -27 -12 13 -9
40 -11 42 -45 42 -24 0 -45 -8 -60 -22 -13 -12 -26 -18 -30 -14 -5 4 1 14 12
22 17 12 18 17 7 34 -13 22 -1 60 18 60 6 0 10 8 10 17 0 14 -3 13 -16 -6 -26
-37 -34 -9 -40 143 l-5 136 48 51 c26 28 50 55 51 60 7 17 125 90 131 81 3 -5
28 -13 56 -17 84 -12 135 -51 135 -102 0 -31 -10 -29 -50 12 -19 19 -48 37
-65 41 -41 7 -108 -20 -140 -58 -23 -28 -25 -37 -21 -95 3 -36 11 -72 17 -79
8 -10 8 -14 0 -14 -6 0 -11 -4 -11 -10 0 -5 8 -7 18 -4 15 5 15 4 1 -8 -16
-13 -42 -78 -35 -85 2 -3 27 24 55 58 48 60 60 87 25 59 -13 -12 -17 -11 -25
1 -5 8 -9 19 -9 26 0 6 -3 18 -6 27 -5 12 6 9 40 -10 l46 -26 76 48 c53 33 79
56 86 76 6 15 14 28 18 28 10 0 3 35 -17 78 -18 42 -59 59 -158 67 -22 2 -42
4 -45 4 -3 1 10 9 28 17 17 9 32 20 32 25 0 15 -17 10 -24 -6 -3 -8 -11 -15
-17 -15 -9 0 -9 4 0 14 7 9 8 17 3 20 -6 3 -13 -5 -16 -19 -4 -16 -21 -31 -54
-46 -26 -12 -50 -23 -54 -23 -3 -1 -20 -19 -37 -40 -36 -45 -60 -65 -80 -66
-8 0 -12 3 -8 6 6 7 -29 44 -84 87 -33 27 -33 28 -15 42 25 19 57 19 103 0 19
-8 50 -14 67 -14 17 1 24 3 16 5 -9 3 -22 19 -30 37 -7 18 -15 35 -17 39 -3 4
8 10 23 14 23 6 24 8 10 16 -10 6 -20 8 -23 5 -2 -3 -30 3 -60 14 -60 20 -74
19 -53 -6 19 -23 6 -18 -25 11 -15 14 -25 28 -22 31 6 5 144 -19 183 -33 18
-6 18 -6 -1 9 -11 9 -15 17 -10 18 14 1 -124 27 -152 28 -13 1 -23 -3 -23 -7z
m390 -271 c0 -15 -42 -41 -67 -41 -13 0 -23 5 -23 10 0 6 14 10 30 10 20 0 30
5 30 15 0 8 7 15 15 15 8 0 15 -4 15 -9z m79 -41 c35 -29 35 -29 15 -51 -10
-11 -41 -32 -68 -46 -42 -21 -52 -23 -77 -13 -49 21 -49 70 -1 89 15 5 41 19
57 30 39 25 34 26 74 -9z m-1729 -285 c0 -8 -4 -15 -10 -15 -5 0 -10 -4 -10
-10 0 -5 10 -10 21 -10 19 0 20 -2 8 -17 -10 -12 -10 -15 -1 -9 14 8 32 -7 51
-43 7 -12 15 -20 18 -17 3 3 22 -16 42 -42 20 -27 43 -56 51 -64 38 -39 63
-73 72 -98 5 -15 18 -30 28 -33 19 -5 75 -85 66 -94 -3 -3 -13 0 -22 8 -16 13
-16 12 -5 -9 11 -22 14 -22 30 -8 15 14 17 13 19 -11 3 -32 19 -53 42 -53 10
0 33 -18 52 -41 18 -22 40 -49 48 -59 108 -128 190 -229 190 -234 0 -3 12 -18
26 -33 59 -62 214 -253 214 -263 0 -5 7 -10 15 -10 8 0 15 -4 15 -9 0 -4 14
-22 30 -39 17 -18 30 -37 30 -42 0 -6 4 -9 9 -5 14 8 32 -30 25 -52 -5 -15 -4
-15 5 -3 22 32 35 -7 36 -105 0 -52 -2 -95 -5 -95 -3 0 -4 -21 -3 -47 2 -59 5
-291 4 -317 -1 -15 -6 -17 -28 -11 l-28 7 28 -29 c31 -33 34 -43 12 -43 -8 0
-15 7 -15 15 0 8 -4 15 -9 15 -5 0 -12 11 -15 25 -4 17 -11 23 -23 18 -12 -5
-15 -2 -10 10 4 10 2 14 -7 11 -11 -4 -57 44 -98 105 -10 14 -18 22 -19 16 0
-5 -3 -3 -7 6 -4 9 -21 33 -39 55 -18 21 -66 82 -108 134 -42 52 -84 104 -93
115 -9 11 -24 35 -33 52 -9 18 -30 45 -45 61 -34 32 -185 210 -257 302 -75 96
-200 243 -283 333 -26 28 -51 94 -40 105 3 3 6 1 6 -5 0 -18 38 -9 59 13 11
12 17 25 14 28 -4 3 2 6 11 6 12 0 16 -5 13 -14 -3 -8 3 -22 13 -31 17 -16 19
-15 30 5 15 27 4 40 -39 46 -22 4 -33 1 -37 -10 -10 -25 -25 -8 -18 20 3 13 1
31 -6 39 -6 8 -9 19 -5 25 3 5 1 10 -5 10 -7 0 -9 7 -6 16 5 14 4 15 -8 5 -12
-10 -16 -5 -27 26 -7 21 -32 57 -56 81 -42 40 -44 44 -30 65 8 12 23 22 33 22
11 0 19 5 20 10 0 6 6 23 13 39 6 16 9 37 6 47 -4 11 -2 19 3 19 6 0 7 14 1
37 -6 28 -4 42 7 54 7 8 14 21 14 27 0 7 5 12 10 12 6 0 10 -7 10 -15z m1380
-135 c13 -9 13 -11 1 -19 -8 -5 -21 -7 -29 -3 -10 3 -13 1 -8 -7 5 -7 2 -10
-6 -9 -7 2 -21 -14 -31 -34 -16 -32 -37 -51 -37 -33 0 19 47 95 64 104 27 13
28 13 46 1z m74 -76 c-11 -17 -20 -22 -27 -15 -12 12 8 41 29 41 12 0 11 -5
-2 -26z m58 -534 c-2 -407 0 -555 9 -571 7 -13 15 -106 20 -228 14 -335 47
-548 102 -659 91 -182 109 -200 219 -213 40 -4 77 -8 81 -9 5 0 5 -4 2 -10
-10 -16 -96 -12 -151 7 -125 42 -192 117 -269 305 -22 51 -49 106 -62 121 -15
19 -23 42 -23 67 0 21 -5 42 -10 45 -6 4 -8 11 -4 16 9 14 12 290 13 996 0
330 4 603 8 605 5 1 21 20 36 41 15 20 29 37 30 37 1 0 1 -247 -1 -550z m-109
433 c7 -82 5 -455 -3 -485 -5 -15 -5 -28 0 -28 5 0 8 -107 7 -237 l-2 -237
-25 -14 -25 -13 26 3 c29 5 33 -8 23 -90 -5 -45 -9 -53 -23 -49 -47 12 -61
-36 -18 -62 21 -14 21 -13 4 12 -20 31 -21 37 -6 37 17 0 38 -65 35 -104 -2
-20 0 -39 5 -42 5 -3 9 -15 8 -27 0 -21 -1 -21 -9 -2 -5 12 -6 -22 -3 -82 6
-120 2 -146 -29 -161 -22 -11 -22 -12 -2 -7 13 3 29 -1 38 -10 20 -20 20 -26
1 -19 -8 4 -15 10 -15 15 0 5 -9 4 -20 -3 -18 -11 -18 -14 -3 -30 9 -10 20
-15 25 -12 6 4 5 -3 -1 -14 -7 -14 -8 -23 -1 -27 5 -3 10 -16 10 -29 0 -12 6
-31 14 -41 7 -10 11 -26 9 -35 -5 -20 24 -35 41 -20 9 7 25 -16 60 -85 27 -52
51 -95 55 -95 3 0 15 -16 25 -35 11 -19 24 -35 31 -35 7 0 20 -10 31 -21 22
-24 109 -69 135 -69 10 0 21 -5 24 -11 4 -6 13 -8 21 -5 25 9 25 -12 0 -39
-26 -28 -95 -48 -81 -23 7 11 5 11 -6 0 -11 -11 -11 -14 -1 -21 19 -12 -45
-21 -145 -21 -66 0 -81 3 -79 15 1 8 5 18 9 21 4 4 7 12 7 18 0 6 -5 5 -12 -2
-16 -16 -28 -15 -28 3 0 8 8 15 18 16 10 0 12 3 4 6 -7 3 -27 -11 -45 -30 -43
-46 -72 -37 -110 36 -15 28 -40 68 -56 87 -138 166 -181 227 -181 257 0 17 -4
34 -9 38 -5 3 -13 20 -16 38 -4 17 -22 52 -40 77 l-33 45 38 1 c25 1 41 -3 44
-12 3 -8 18 -14 34 -14 16 0 37 -9 47 -20 23 -25 37 -25 61 1 17 19 19 40 22
183 3 136 6 163 20 175 16 13 16 13 -1 8 -15 -6 -16 -4 -7 13 6 11 7 20 2 20
-5 0 -10 73 -11 163 -1 89 -4 178 -8 197 -5 31 -4 34 10 22 19 -16 37 -8 36
16 -1 15 -2 15 -6 0 -2 -10 -9 -18 -15 -18 -6 0 -8 9 -5 20 3 11 1 20 -4 20
-5 0 -9 -4 -9 -9 0 -5 -11 -8 -24 -5 -16 3 -35 -4 -54 -21 -16 -14 -34 -25
-38 -25 -5 0 -8 42 -7 92 1 51 2 157 3 235 0 139 0 142 23 145 26 4 30 32 4
34 -12 1 -13 1 -2 -3 19 -6 20 -23 1 -23 -18 0 -26 22 -26 75 0 72 118 345
149 345 5 0 14 -7 21 -15 11 -13 14 -13 25 2 9 12 10 24 4 35 -16 29 -11 58
10 58 15 0 20 -9 24 -47z m-1399 -206 c-3 -8 -1 -18 5 -22 14 -8 14 -45 1 -45
-5 0 -10 11 -10 25 0 14 -4 25 -10 25 -5 0 -10 11 -10 24 0 13 -7 26 -15 30
-8 3 -15 13 -15 23 0 13 7 10 30 -14 18 -18 28 -37 24 -46z m1252 -719 c-3
-13 -6 -189 -6 -391 0 -290 -3 -368 -12 -365 -7 3 -15 15 -16 28 -3 21 -7 22
-48 16 l-44 -6 0 296 0 296 46 52 c26 28 51 61 57 74 6 12 15 22 20 22 5 0 7
-10 3 -22z m376 -167 c2 -16 4 -85 4 -154 -1 -74 3 -123 8 -119 5 3 7 -2 3
-11 -8 -20 -11 -316 -3 -337 6 -19 25 -85 36 -127 6 -25 5 -30 -6 -26 -8 3
-11 9 -8 14 3 5 1 9 -4 9 -9 0 -37 81 -47 135 -24 132 -42 350 -45 547 -1 73
2 88 16 96 26 14 41 5 46 -27z m-162 -626 c0 -13 -48 -30 -58 -20 -3 3 4 8 16
12 12 3 22 12 22 20 0 8 5 11 10 8 6 -3 10 -12 10 -20z m-330 -500 c57 -30 60
-31 98 -33 12 -1 22 -7 22 -13 0 -11 -10 -10 -80 6 -47 10 -100 40 -121 68
l-23 32 24 -16 c14 -9 50 -29 80 -44z m255 -39 c11 -7 29 -16 40 -19 11 -2
-22 -5 -72 -6 -98 -1 -118 8 -55 26 53 15 65 15 87 -1z"/>
<path d="M1089 2388 c-6 -14 -5 -46 2 -43 4 3 9 0 11 -7 3 -7 12 -9 22 -5 25
10 17 51 -11 55 -13 2 -24 2 -24 0z"/>
<path d="M1143 2322 c-39 -4 -43 -24 -13 -62 12 -15 18 -18 14 -7 -4 12 -1 17
11 17 10 0 13 -4 9 -12 -5 -8 -2 -8 10 1 9 8 21 22 27 32 12 23 -12 36 -58 31z"/>
<path d="M1296 2151 c-15 -16 -15 -19 -1 -31 12 -10 18 -10 30 0 8 7 15 18 15
25 0 21 -27 25 -44 6z"/>
<path d="M1388 1898 c-11 -29 21 -54 36 -29 3 5 0 8 -7 7 -6 0 -12 4 -12 9 0
6 6 9 13 9 6 -1 12 2 12 7 0 14 -37 11 -42 -3z"/>
<path d="M1346 1853 c-9 -22 16 -54 31 -41 7 6 13 18 12 27 0 10 -2 11 -6 4
-5 -13 -33 -18 -33 -7 0 4 7 12 16 19 15 10 15 12 1 12 -9 0 -19 -7 -21 -14z"/>
<path d="M1605 1550 c-3 -5 -2 -17 2 -25 8 -13 12 -13 27 -2 11 8 16 19 12 25
-9 15 -33 16 -41 2z"/>
<path d="M1741 1519 c-15 -43 -14 -47 10 -60 30 -15 43 1 34 43 -5 18 -10 27
-12 21 -8 -22 -25 -14 -18 7 10 33 -2 23 -14 -11z"/>
<path d="M1600 1472 c0 -7 -10 -16 -22 -21 l-22 -8 22 -5 c12 -4 22 -2 22 3 0
5 12 6 26 3 20 -5 25 -4 19 5 -4 7 -9 10 -13 7 -3 -3 -11 2 -18 12 -9 11 -13
12 -14 4z"/>
<path d="M1678 1463 c-21 -5 -31 -32 -18 -48 23 -27 67 6 54 40 -6 15 -8 16
-36 8z"/>
<path d="M1925 1451 c-4 -7 4 -11 19 -11 14 0 26 -5 26 -10 0 -6 -11 -8 -27
-4 l-28 7 26 -33 c14 -19 32 -36 40 -38 11 -4 12 -2 2 9 -17 18 -16 29 2 29 8
0 15 -5 15 -12 0 -6 2 -9 5 -6 3 3 -3 21 -13 39 -19 34 -54 50 -67 30z"/>
<path d="M1614 1400 c-2 -28 30 -58 41 -40 4 6 15 4 29 -5 20 -13 25 -13 35
-2 8 11 7 17 -7 29 -23 19 -62 21 -62 2 0 -8 -4 -14 -9 -14 -15 0 -23 18 -11
25 14 9 13 22 -3 28 -8 3 -13 -5 -13 -23z"/>
<path d="M1731 1347 c-19 -19 -12 -54 14 -71 27 -18 35 -7 10 14 -17 14 -20
50 -5 50 6 0 10 -9 10 -20 0 -14 5 -18 16 -13 13 5 15 2 9 -18 -6 -19 -5 -21
5 -13 16 16 4 49 -24 67 -17 12 -26 13 -35 4z"/>
<path d="M2030 1247 c-37 -18 -34 -41 6 -44 36 -3 54 22 32 43 -10 10 -19 10
-38 1z"/>
<path d="M1790 1234 c-11 -12 -11 -18 2 -30 16 -17 48 -9 48 12 0 8 -4 14 -10
14 -5 0 -9 -5 -7 -11 1 -6 -4 -14 -10 -16 -16 -6 -17 19 -1 35 8 8 8 12 1 12
-6 0 -16 -7 -23 -16z"/>
<path d="M2312 2198 c2 -15 10 -23 23 -23 30 0 27 39 -3 43 -20 3 -23 0 -20
-20z"/>
<path d="M2316 598 c-15 -21 -13 -38 4 -38 4 0 6 8 3 18 -3 12 3 22 19 29 17
9 19 12 6 12 -9 1 -24 -9 -32 -21z"/>
<path d="M2833 3241 c-13 -11 -23 -22 -23 -25 0 -12 28 -6 40 9 20 24 31 6 14
-21 -9 -13 -14 -27 -11 -31 9 -8 39 5 33 15 -2 4 -1 14 3 20 6 9 23 -1 62 -35
42 -36 47 -39 24 -13 -48 56 -97 100 -109 100 -6 -1 -21 -9 -33 -19z"/>
<path d="M1936 3225 c-76 -31 -116 -69 -116 -110 0 -41 19 -61 36 -37 7 9 16
14 20 10 4 -5 -1 -17 -11 -28 -26 -29 -11 -36 28 -12 19 11 61 27 93 37 71 20
104 40 104 61 0 12 -4 14 -12 7 -7 -6 -52 -22 -99 -38 -70 -22 -90 -25 -108
-16 -11 7 -21 16 -21 22 0 31 136 119 160 104 6 -3 10 -2 10 4 0 5 12 12 28
14 20 3 17 4 -13 5 -22 1 -66 -9 -99 -23z"/>
<path d="M524 3225 c-8 -20 4 -35 27 -35 20 0 23 8 13 34 -8 20 -33 21 -40 1z"/>
<path d="M613 3199 c-16 -16 -5 -39 18 -39 24 0 37 29 18 41 -18 11 -23 11
-36 -2z"/>
<path d="M2598 3203 c6 -2 12 -11 12 -19 0 -17 -27 -19 -32 -2 -3 7 -7 5 -11
-6 -4 -9 -3 -15 2 -11 5 3 12 1 16 -4 11 -19 41 -8 39 13 -1 12 -3 24 -3 29
-1 4 -9 7 -18 6 -11 0 -13 -3 -5 -6z"/>
<path d="M1692 3124 c-54 -37 -12 -106 93 -154 77 -35 129 -82 120 -110 -4
-12 -2 -20 6 -20 9 0 8 -4 -1 -15 -10 -12 -10 -18 0 -30 6 -8 9 -18 6 -23 -3
-5 7 -19 21 -32 45 -39 57 -19 65 101 8 119 5 145 -24 177 -27 28 -30 28 -68
-4 -21 -18 -27 -29 -20 -34 6 -4 10 -20 8 -36 -4 -26 -5 -27 -13 -9 -4 11 -26
42 -47 68 -40 47 -65 108 -53 127 8 13 -15 13 -35 0 -9 -5 -19 -5 -25 0 -7 6
-20 4 -33 -6z m76 -66 c12 -32 5 -53 -13 -40 -24 17 -46 52 -40 61 13 22 41
11 53 -21z m198 -66 c14 -21 18 -169 6 -201 -7 -21 -9 -21 -22 -6 -8 9 -15 33
-17 53 -2 20 -7 50 -13 67 -22 70 14 139 46 87z"/>
<path d="M144 3091 c-56 -40 -150 -144 -136 -149 7 -2 10 -8 7 -13 -4 -5 1 -6
9 -3 9 3 16 10 16 16 0 5 -6 6 -12 2 -9 -5 -9 -3 1 9 7 9 17 14 22 11 5 -3 9
0 9 6 0 6 13 5 36 -5 47 -20 47 -19 18 10 -14 14 -31 22 -37 19 -7 -4 -1 5 13
19 14 13 27 24 30 23 3 0 16 9 30 22 29 27 35 27 53 2 8 -11 16 -17 19 -14 3
2 9 -20 13 -51 4 -39 3 -61 -6 -71 -10 -12 -9 -13 4 -9 29 12 25 -11 -5 -28
-28 -16 -29 -16 -26 1 4 20 -32 52 -59 51 -15 0 -14 -2 5 -9 12 -5 27 -21 32
-35 5 -14 17 -28 25 -31 13 -5 12 -9 -5 -24 -22 -19 -17 -30 12 -30 12 0 18 6
16 16 -2 10 3 19 10 21 7 3 12 -6 13 -24 1 -15 7 4 14 42 6 40 8 75 3 82 -5 6
-5 14 1 17 11 7 3 46 -10 46 -5 0 -9 11 -9 25 0 14 -4 25 -9 25 -5 0 -13 9
-16 20 -12 38 -39 42 -81 11z"/>
<path d="M501 3096 c-9 -11 -8 -18 4 -30 17 -17 45 -11 45 10 0 22 -36 36 -49
20z"/>
<path d="M2567 3023 c-20 -14 -36 -28 -34 -29 2 -2 25 8 52 21 27 13 53 21 57
19 3 -2 9 0 13 6 13 21 -52 9 -88 -17z"/>
<path d="M2883 2954 c-30 -15 -44 -34 -25 -34 8 0 70 49 62 49 -3 0 -20 -7
-37 -15z"/>
<path d="M2923 2812 c-36 -37 -39 -47 -20 -67 6 -8 19 -22 26 -31 10 -12 16
-14 19 -5 2 6 -7 22 -21 35 l-26 24 28 26 28 27 15 -23 c9 -13 20 -19 24 -15
5 5 1 13 -9 19 -10 5 -21 17 -25 27 -6 15 -12 12 -39 -17z"/>
<path d="M175 2773 c3 -45 -3 -63 -19 -63 -17 0 -40 -45 -31 -60 4 -6 15 -10
25 -8 11 2 20 1 21 -2 5 -12 -54 -89 -111 -144 -38 -38 -60 -68 -60 -82 0 -19
18 -5 93 72 102 106 122 133 131 182 5 28 3 33 -11 30 -10 -2 -22 -12 -28 -23
-5 -11 -21 -21 -35 -23 -22 -2 -20 2 23 40 52 47 56 62 28 96 -26 30 -28 28
-26 -15z"/>
<path d="M562 2766 c-28 -28 -31 -35 -18 -45 20 -16 36 -6 36 23 0 12 5 27 12
34 6 6 10 14 7 16 -2 2 -19 -10 -37 -28z"/>
<path d="M2770 2728 c0 -6 18 -29 41 -50 22 -21 36 -38 31 -38 -5 0 -15 7 -22
15 -9 11 -22 14 -43 9 -19 -4 -32 -2 -37 6 -4 7 -13 9 -19 5 -21 -13 8 -34 41
-30 30 4 30 4 12 -17 -11 -11 -43 -34 -73 -51 -30 -17 -50 -32 -44 -34 5 -2
41 14 79 36 38 22 80 42 94 46 22 5 26 3 28 -20 3 -37 11 -48 27 -35 19 16 28
-5 13 -30 -8 -13 -9 -23 -3 -28 27 -19 84 -107 98 -152 3 -8 6 8 6 36 1 42 -3
55 -24 74 -14 13 -25 29 -25 36 0 8 -7 11 -17 8 -17 -5 -17 -5 -1 9 13 10 15
16 6 25 -7 7 -8 12 -2 12 5 0 2 5 -6 11 -12 8 -11 9 6 4 13 -3 26 1 34 10 7 8
16 12 21 9 5 -3 9 6 9 20 0 32 -13 33 -32 4 -13 -19 -18 -21 -30 -10 -11 9
-23 10 -41 3 -17 -7 -28 -7 -32 -1 -7 12 43 33 61 26 7 -3 18 2 24 9 10 12 4
14 -34 13 -43 0 -111 29 -111 49 0 4 -5 7 -12 7 -6 -1 -9 5 -6 12 3 8 0 14 -6
14 -6 0 -11 -5 -11 -12z"/>
<path d="M465 2649 c-4 -5 0 -18 9 -28 9 -10 16 -25 16 -34 0 -9 4 -18 9 -21
14 -9 41 5 41 21 0 8 6 13 13 10 7 -3 19 4 25 14 10 16 10 21 -3 25 -8 4 -22
0 -31 -7 -9 -7 -26 -14 -37 -16 -20 -3 -21 -2 -5 10 13 11 15 16 6 25 -15 15
-35 15 -43 1z"/>
<path d="M2246 2528 c-20 -16 -36 -34 -36 -39 0 -5 -9 -18 -20 -29 -19 -19
-20 -33 -19 -203 l1 -182 23 65 c13 36 30 83 38 105 12 31 12 43 4 54 -10 12
-9 14 4 9 12 -5 21 4 33 34 15 40 13 64 -5 53 -5 -4 -9 -14 -9 -24 0 -10 -9
-30 -20 -43 -10 -14 -21 -42 -23 -62 -3 -21 -9 -42 -16 -49 -13 -13 -13 -7 -2
50 6 32 5 40 -5 36 -18 -7 -7 62 17 105 26 46 24 58 -6 25 -34 -38 -32 -14 3
28 56 70 75 87 88 82 8 -3 14 -3 14 0 0 18 -33 11 -64 -15z"/>
<path d="M192 2387 c-57 -58 -53 -64 5 -11 26 24 45 46 42 48 -3 3 -24 -14
-47 -37z"/>
<path d="M625 2412 c2 -3 -3 -11 -11 -20 -13 -13 -13 -17 -1 -29 20 -20 46 -6
45 26 -1 19 -6 27 -19 27 -10 0 -16 -2 -14 -4z"/>
<path d="M55 2240 c-27 -27 -47 -51 -44 -53 2 -3 26 20 52 49 61 68 57 70 -8
4z"/>
<path d="M566 2164 c-5 -13 -4 -14 7 -6 8 7 17 9 20 5 11 -11 8 -23 -7 -23 -9
0 -12 -8 -8 -27 4 -20 7 -23 10 -10 4 19 17 22 27 6 4 -6 -1 -17 -11 -25 -12
-10 -14 -14 -5 -12 8 3 19 12 25 22 9 13 7 20 -6 30 -10 7 -15 16 -11 19 7 7
-15 37 -27 37 -4 0 -11 -7 -14 -16z"/>
<path d="M253 2032 c-17 -20 -65 -77 -107 -125 -42 -48 -76 -90 -76 -93 0 -7
89 90 214 234 11 12 15 22 10 21 -5 0 -23 -17 -41 -37z"/>
<path d="M595 2031 c-3 -8 2 -22 12 -30 15 -15 16 -15 5 0 -6 9 -9 19 -5 22
11 12 23 8 23 -8 0 -8 4 -15 9 -15 4 0 6 11 4 24 -6 27 -39 32 -48 7z"/>
<path d="M828 1988 l-58 -57 0 -859 0 -858 68 4 c123 8 197 57 248 166 l24 51
0 539 0 540 -32 27 c-31 25 -33 30 -31 88 1 34 -2 61 -7 61 -11 0 -31 -93 -22
-100 4 -3 9 -14 10 -25 2 -10 15 -32 28 -48 23 -28 24 -33 25 -210 0 -100 0
-213 -1 -252 0 -38 -2 -196 -3 -350 -2 -267 -3 -282 -24 -321 -43 -81 -126
-134 -208 -134 l-45 0 1 63 c0 34 0 408 0 832 -1 672 1 771 14 781 8 6 12 13
10 16 -3 3 4 13 14 22 19 17 22 15 99 -66 118 -123 152 -161 152 -170 0 -4 7
-8 15 -8 8 0 15 -3 15 -7 0 -5 15 -24 33 -43 57 -61 178 -204 237 -280 47 -60
51 -65 109 -139 28 -35 51 -68 51 -73 0 -5 5 -6 12 -2 6 4 8 3 5 -3 -3 -5 5
-17 19 -27 13 -11 24 -25 24 -32 0 -8 3 -14 8 -14 7 0 78 -87 96 -117 17 -30
-21 1 -51 40 -17 23 -41 52 -53 65 -11 12 -18 22 -15 22 3 0 -9 15 -27 34 -71
75 -148 170 -148 184 0 6 -8 13 -17 16 -10 3 -29 23 -43 43 -14 20 -40 52 -57
70 -22 21 -31 38 -27 50 5 15 4 16 -5 3 -8 -11 -13 -12 -19 -3 -12 18 -58 75
-91 112 -16 18 -27 39 -25 46 4 9 -1 12 -13 11 -10 -2 -28 4 -40 12 -14 8 -23
10 -23 4 0 -6 7 -15 15 -19 8 -5 54 -57 103 -115 339 -413 690 -818 707 -818
6 0 19 14 28 30 10 17 14 30 9 30 -5 0 -53 52 -107 116 -75 90 -94 119 -83
126 10 8 9 9 -4 4 -18 -5 -56 37 -248 279 -150 189 -297 363 -355 420 -80 80
-245 264 -245 274 0 5 5 11 12 13 7 3 8 6 3 9 -6 3 -36 -21 -67 -53z"/>
<path d="M632 1848 c-16 -16 -15 -33 2 -47 11 -9 18 -8 30 4 18 19 20 31 6 40
-5 3 -10 -3 -10 -14 0 -12 -7 -21 -15 -21 -18 0 -19 12 -3 28 6 6 9 14 7 17
-3 2 -11 -1 -17 -7z"/>
<path d="M582 1678 c-28 -28 2 -67 34 -43 15 11 17 18 8 31 -14 23 -27 27 -42
12z"/>
<path d="M2856 1644 c-9 -23 -8 -24 14 -24 13 0 20 7 20 20 0 24 -25 27 -34 4z"/>
<path d="M2685 1490 c-27 -28 -45 -50 -39 -50 13 0 99 88 93 95 -3 2 -27 -18
-54 -45z"/>
<path d="M550 1400 c-8 -15 -6 -21 11 -30 28 -16 53 4 38 31 -13 25 -35 24
-49 -1z"/>
<path d="M631 1307 c-9 -11 -8 -17 4 -27 19 -16 47 -5 43 17 -4 23 -31 28 -47
10z"/>
<path d="M2727 1246 c-3 -8 2 -16 14 -19 10 -3 19 -1 19 3 0 5 14 3 31 -3 43
-17 72 -67 67 -117 -2 -22 0 -40 4 -40 14 0 8 81 -9 117 -16 35 -73 70 -93 58
-6 -4 -10 -1 -10 4 0 16 -17 13 -23 -3z"/>
<path d="M2831 1012 c-40 -34 -43 -40 -32 -60 10 -19 35 -28 64 -23 16 2 5
-15 -35 -56 -23 -23 -39 -45 -36 -49 4 -3 26 16 49 43 24 26 70 74 103 106 32
31 57 59 54 62 -2 3 -15 -6 -27 -19 -14 -15 -30 -22 -40 -19 -25 9 -51 35 -45
44 12 20 -14 6 -55 -29z m59 -33 c0 -5 -7 -12 -16 -16 -19 -7 -38 18 -22 28
14 9 38 0 38 -12z"/>
<path d="M544 995 c-9 -23 3 -45 25 -45 29 0 36 18 15 41 -21 23 -33 24 -40 4z"/>
<path d="M340 917 c-47 -38 -65 -121 -35 -161 8 -11 13 -29 10 -40 -2 -12 -6
-48 -10 -81 -6 -59 -5 -60 12 -35 9 13 19 42 20 64 7 85 13 43 13 -92 0 -77 3
-147 6 -156 5 -13 -1 -16 -31 -16 -20 0 -45 -4 -55 -10 -19 -10 -40 -59 -40
-92 0 -18 5 -19 43 -13 27 4 53 17 72 36 l30 29 3 290 c3 303 2 310 -38 277z
m11 -60 c-1 -4 -1 -27 -1 -52 0 -53 -16 -60 -25 -11 -8 39 2 79 17 74 5 -2 9
-7 9 -11z m-21 -494 c0 -23 -29 -53 -46 -46 -19 7 -18 19 6 43 24 24 40 26 40
3z"/>
<path d="M1210 782 c-49 -24 -60 -60 -31 -101 31 -43 61 -58 73 -37 6 11 16
15 30 10 16 -5 20 -3 16 8 -3 8 0 22 8 33 21 29 17 51 -17 79 -36 31 -35 31
-79 8z m64 -33 c17 -21 17 -22 -2 -48 -19 -26 -57 -36 -62 -16 -2 6 -9 15 -17
20 -18 14 -7 44 21 55 32 13 40 12 60 -11z"/>
<path d="M2786 738 c4 -18 12 -55 20 -82 20 -73 18 -85 -18 -102 l-33 -15 40
6 c22 4 43 10 46 13 4 4 -4 39 -17 77 -13 39 -24 85 -24 103 0 17 -4 32 -10
32 -5 0 -7 -14 -4 -32z"/>
<path d="M1920 737 c0 -14 134 -159 138 -149 2 6 -29 43 -67 83 -39 41 -71 70
-71 66z"/>
<path d="M185 672 c5 -19 3 -23 -12 -20 -12 2 -17 -2 -15 -14 3 -18 -22 -26
-31 -10 -2 4 -2 1 -1 -6 4 -16 -30 -77 -44 -77 -5 0 -14 -3 -18 -7 -4 -5 -2
-8 5 -8 7 0 -6 -21 -28 -46 -23 -26 -41 -51 -41 -55 0 -32 59 24 137 129 46
61 58 72 83 72 26 0 30 -4 30 -27 0 -40 11 -73 22 -73 11 0 6 145 -5 156 -3 3
-16 -1 -28 -10 -21 -14 -24 -14 -42 2 -19 16 -19 16 -12 -6z"/>
<path d="M584 675 c-4 -9 -2 -21 4 -27 15 -15 44 -1 40 19 -4 23 -36 29 -44 8z"/>
<path d="M1906 608 c-3 -13 -6 -65 -6 -115 0 -51 -4 -93 -9 -93 -5 0 -3 -28 4
-61 10 -47 20 -67 42 -85 15 -13 22 -23 16 -24 -7 0 -13 -10 -12 -22 l0 -23 9
21 c13 33 92 55 199 56 l90 1 -50 56 c-28 31 -55 66 -60 79 -5 12 -13 22 -18
22 -6 0 -16 11 -23 24 -36 66 -95 140 -129 162 -47 29 -45 29 -53 2z m71 -60
c13 -12 23 -27 23 -34 0 -6 7 -14 15 -18 8 -3 15 -12 15 -21 0 -8 4 -15 10
-15 5 0 21 -20 35 -44 14 -24 33 -50 41 -57 21 -17 41 -54 23 -44 -7 5 -17 1
-24 -9 -14 -19 -36 -25 -109 -30 -45 -4 -51 -2 -65 22 -21 40 -16 272 7 272 3
0 16 -10 29 -22z"/>
<path d="M233 553 c-21 -8 -15 -33 12 -45 31 -14 32 -37 4 -72 -19 -24 -26
-27 -58 -21 -35 6 -40 3 -114 -70 -44 -43 -77 -84 -77 -95 0 -14 18 -2 70 50
38 39 72 70 75 70 3 0 5 -6 5 -14 0 -8 5 -18 10 -21 16 -10 12 22 -5 39 -33
33 -3 37 33 4 19 -18 26 -20 30 -9 2 7 13 21 24 30 22 18 48 74 48 102 0 13
-7 19 -23 19 -30 0 -40 10 -26 27 12 14 11 14 -8 6z"/>
<path d="M1260 365 c-19 -19 -29 -35 -24 -35 6 0 25 16 44 35 19 19 29 35 24
35 -6 0 -25 -16 -44 -35z"/>
<path d="M516 314 c-7 -18 19 -54 39 -54 6 0 11 11 10 24 0 28 -15 49 -15 22
0 -10 -6 -16 -12 -13 -7 2 -12 11 -10 21 4 21 -4 21 -12 0z"/>
<path d="M1331 75 c-19 -19 -30 -35 -25 -35 11 0 45 29 63 53 23 30 -3 18 -38
-18z"/>
<path d="M1960 55 c0 -25 14 -34 24 -16 8 12 -3 41 -15 41 -5 0 -9 -11 -9 -25z"/>
<path d="M1395 30 c-16 -17 -24 -30 -19 -30 6 0 23 13 39 30 16 17 24 30 19
30 -6 0 -23 -13 -39 -30z"/>
<path d="M1995 20 c-18 -20 -17 -20 56 -20 l74 1 -55 19 c-30 11 -55 20 -56
20 0 0 -9 -9 -19 -20z"/>
</g>
</svg>
